
<svg width="14px" height="14px" viewBox="0 0 14 14" version="1.1" xmlns="http://www.w3.org/2000/svg" xmlns:xlink="http://www.w3.org/1999/xlink">
    <!-- Generator: Sketch 43 (38999) - http://www.bohemiancoding.com/sketch -->
    <desc>Created with Sketch.</desc>
    <defs></defs>
    <g id="Symbols" stroke="none" stroke-width="1" fill="none" fill-rule="evenodd">
        <g id="PropertyListing-actionBar" transform="translate(-1135.000000, -18.000000)">
            <g id="view-switch" transform="translate(1103.000000, 18.000000)">
                <g id="ico-listView" transform="translate(32.000000, 0.000000)">
                    <path d="M2,0.5 C2.82785,0.5 3.5,1.17215 3.5,2 C3.5,2.82785 2.82785,3.5 2,3.5 C1.17215,3.5 0.5,2.82785 0.5,2 C0.5,1.17215 1.17215,0.5 2,0.5 Z" id="Fill" fill="#EDEFF0"></path>
                    <path d="M2,0.5 C2.82785,0.5 3.5,1.17215 3.5,2 C3.5,2.82785 2.82785,3.5 2,3.5 C1.17215,3.5 0.5,2.82785 0.5,2 C0.5,1.17215 1.17215,0.5 2,0.5 Z" id="Stroke" stroke="#A3B0B2" stroke-linecap="round" stroke-linejoin="round"></path>
                    <path d="M2,5.5 C2.82785,5.5 3.5,6.17215 3.5,7 C3.5,7.82785 2.82785,8.5 2,8.5 C1.17215,8.5 0.5,7.82785 0.5,7 C0.5,6.17215 1.17215,5.5 2,5.5 Z" id="Fill" fill="#EDEFF0"></path>
                    <path d="M2,5.5 C2.82785,5.5 3.5,6.17215 3.5,7 C3.5,7.82785 2.82785,8.5 2,8.5 C1.17215,8.5 0.5,7.82785 0.5,7 C0.5,6.17215 1.17215,5.5 2,5.5 Z" id="Stroke" stroke="#A3B0B2" stroke-linecap="round" stroke-linejoin="round"></path>
                    <path d="M2,10.5 C2.82785,10.5 3.5,11.17215 3.5,12 C3.5,12.82785 2.82785,13.5 2,13.5 C1.17215,13.5 0.5,12.82785 0.5,12 C0.5,11.17215 1.17215,10.5 2,10.5 Z" id="Fill" fill="#EDEFF0"></path>
                    <path d="M2,10.5 C2.82785,10.5 3.5,11.17215 3.5,12 C3.5,12.82785 2.82785,13.5 2,13.5 C1.17215,13.5 0.5,12.82785 0.5,12 C0.5,11.17215 1.17215,10.5 2,10.5 Z" id="Stroke" stroke="#A3B0B2" stroke-linecap="round" stroke-linejoin="round"></path>
                    <path d="M5.5,1 L9.5,1" id="Stroke" stroke="#A3B0B2" stroke-linecap="round" stroke-linejoin="round"></path>
                    <path d="M5.5,6 L9.5,6" id="Stroke" stroke="#A3B0B2" stroke-linecap="round" stroke-linejoin="round"></path>
                    <path d="M5.5,11 L9.5,11" id="Stroke" stroke="#A3B0B2" stroke-linecap="round" stroke-linejoin="round"></path>
                    <path d="M5.5,3 L13.5,3" id="Stroke" stroke="#A3B0B2" stroke-linecap="round" stroke-linejoin="round"></path>
                    <path d="M5.5,8 L13.5,8" id="Stroke" stroke="#A3B0B2" stroke-linecap="round" stroke-linejoin="round"></path>
                    <path d="M5.5,13 L13.5,13" id="Stroke" stroke="#A3B0B2" stroke-linecap="round" stroke-linejoin="round"></path>
                </g>
            </g>
        </g>
    </g>
</svg>