
<svg width="12px" height="14px" viewBox="0 0 12 14" version="1.1" xmlns="http://www.w3.org/2000/svg" xmlns:xlink="http://www.w3.org/1999/xlink">
    <!-- Generator: Sketch 43 (38999) - http://www.bohemiancoding.com/sketch -->
    <desc>Created with Sketch.</desc>
    <defs></defs>
    <g id="Symbols" stroke="none" stroke-width="1" fill="none" fill-rule="evenodd">
        <g id="PropertyListing-actionBar" transform="translate(-1168.000000, -18.000000)">
            <g id="view-switch" transform="translate(1103.000000, 18.000000)">
                <g id="ico-mapView" transform="translate(66.000000, 0.000000)">
                    <path d="M9.39845,3.11585 C9.7865,3.82635 10.00715,4.6412 10.00715,5.50715 C10.00715,6.2182 9.8584,6.8945 9.59035,7.50715 C8.8767,9.13825 5.5681,12.87855 5.07,13.4369 C4.30365,12.5451 3.21805,11.242 2.40635,10.10795 L9.39845,3.11585 Z" id="Fill" fill="#D1EFF2"></path>
                    <path d="M5.00715,0.50715 C7.7667,0.50715 10.00715,2.7476 10.00715,5.50715 C10.00715,6.2182 9.8584,6.8945 9.59035,7.50715 C8.8181,9.27225 5.00715,13.50715 5.00715,13.50715 C5.00715,13.50715 1.1951,9.2731 0.42325,7.50715 C0.15565,6.8949 0.00715,6.2176 0.00715,5.50715 C0.00715,2.7476 2.24755,0.50715 5.00715,0.50715 Z" id="Stroke" stroke="#17ADBC" stroke-linecap="round" stroke-linejoin="round"></path>
                    <path d="M5.00715,3.00715 C6.38695,3.00715 7.50715,4.12735 7.50715,5.50715 C7.50715,6.88695 6.38695,8.00715 5.00715,8.00715 C3.62735,8.00715 2.50715,6.88695 2.50715,5.50715 C2.50715,4.12735 3.62735,3.00715 5.00715,3.00715 Z" id="Fill" fill="#FFFFFF"></path>
                    <path d="M5.00715,3.00715 C6.38695,3.00715 7.50715,4.12735 7.50715,5.50715 C7.50715,6.88695 6.38695,8.00715 5.00715,8.00715 C3.62735,8.00715 2.50715,6.88695 2.50715,5.50715 C2.50715,4.12735 3.62735,3.00715 5.00715,3.00715 Z" id="Stroke" stroke="#17ADBC" stroke-linecap="round"></path>
                </g>
            </g>
        </g>
    </g>
</svg>